<?xml version="1.0" encoding="UTF-8"?><svg id="a" xmlns="http://www.w3.org/2000/svg" xmlns:xlink="http://www.w3.org/1999/xlink" viewBox="0 0 1000 1000"><defs><style>.e{fill:#0871b8;}.e,.f,.g,.h,.i,.j,.k,.l,.m,.n{fill-rule:evenodd;}.f{fill:#c56287;}.o{clip-path:url(#d);}.g{fill:#e52421;}.p{clip-path:url(#b);}.h{fill:#78c6cb;}.i{fill:#f3e600;}.j{fill:#015788;}.k{fill:#e7b7ca;}.q{clip-rule:evenodd;fill:none;}.l{fill:#afa314;}.r{clip-path:url(#c);}.m{fill:#47ae4c;}.n{fill:#d85f72;}</style><clipPath id="b"><path class="q" d="m225.01,758.45c187.68-171.71,452.84-458.63,449.28-642l57.98,170.89c15.33,203.96-286.8,537.31-443.52,693.73-3.77,3.8-7.54,7.59-11.31,11.37l-.1-.04-.6.59-3.09-2.26c-21.13-10.01-36.87-24.97-53.68-41.19-8.23-8.04-16.11-4.33-15.34,6.28h0c1.06,6.88,2.28,10.71-4.4,17.2-6.67,6.49-28.34,4.74-41.83-10.77-13.48-15.51-13.7-38.87-7.02-45.22,6.67-6.35,10.18-4.57,16.7-2.65h0c10.1,1.83,14.27-6.19,6.97-15.47-15.52-24.28-24.96-41.82-33.06-67.67,26.4-23.98,55.98-48.37,83.02-72.79Z"/></clipPath><clipPath id="c"><path class="q" d="m775.21,759.3c-187.15-172.28-451.42-460.02-447.3-643.37l-58.5,170.71c-11.85,203.92,288.54,538.2,441.38,695.09,3.76,3.81,7.51,7.62,11.27,11.41l.1-.04.59.59,3.1-2.25c21.17-9.95,36.95-24.86,53.81-41.03,8.25-8.02,16.13-4.28,15.32,6.33h0c-1.09,6.88-2.31,10.7,4.34,17.21,6.65,6.51,28.33,4.83,41.86-10.64,13.53-15.47,13.82-38.83,7.16-45.2-6.65-6.37-10.17-4.6-16.69-2.7h0c-10.11,1.8-14.25-6.23-6.93-15.49,15.59-24.23,25.08-41.74,33.27-67.57-26.33-24.06-55.83-48.55-82.79-73.05Z"/></clipPath><clipPath id="d"><path class="q" d="m269.41,286.63l58.5-170.71c47.42-149.25,296.78-145.22,348.54,6.89l55.82,164.53c-61.28-189.68-387.77-176.9-462.86-.71Z"/></clipPath></defs><path class="k" d="m225.01,758.45c187.68-171.71,452.84-458.63,449.28-642l57.98,170.89c15.33,203.96-286.8,537.31-443.52,693.73-3.77,3.8-7.54,7.59-11.31,11.37l-.1-.04-.6.59-3.09-2.26c-21.13-10.01-36.87-24.97-53.68-41.19-8.23-8.04-16.11-4.33-15.34,6.28h0c1.06,6.88,2.28,10.71-4.4,17.2-6.67,6.49-28.34,4.74-41.83-10.77-13.48-15.51-13.7-38.87-7.02-45.22,6.67-6.35,10.18-4.57,16.7-2.65h0c10.1,1.83,14.27-6.19,6.97-15.47-15.52-24.28-24.96-41.82-33.06-67.67,26.4-23.98,55.98-48.37,83.02-72.79Z"/><g class="p"><g><path class="i" d="m356.45,911.52c-10.45-5.37-20.01-12.03-28.99-19.54-8.99-7.52-17.67-15.61-26.33-23.74-7.94-7.75-3.99-15.87,6.47-15.19h0c6.88.78,10.46,1.69,17.06-5.13,6.6-6.82,4.88-27.42-8.53-41.5-13.41-14.07-33.47-16.68-40.04-10.1-6.57,6.59-5.68,10.51-4.97,17.87h0c.41,10.8-7.4,14.71-14.7,5.9-7.65-9.57-15.27-19.51-21.73-30.24-6.69-11.1-11.78-23.63-15.7-37.87-26.4,24.62-52.81,49.14-79.28,73.19,3.13,15.68,7.86,29.24,14.19,41.22,6.17,11.66,13.72,22.2,21.16,32.53,7.29,9.28,3.13,17.3-6.97,15.47h0c-6.52-1.92-10.02-3.69-16.7,2.65-6.67,6.35-6.46,29.71,7.02,45.22,13.48,15.51,35.15,17.26,41.83,10.77,6.67-6.49,5.46-10.31,4.4-17.2h0c-.77-10.61,7.12-14.33,15.34-6.28,8.73,8.42,17.53,16.72,26.9,24.32,9.31,7.54,19.47,13.79,30.57,18.59,26.48-26.53,52.82-53.63,79.01-80.93Z"/><path class="n" d="m139.71,825.16c3.13,15.68,7.86,29.24,14.19,41.22,6.17,11.66,13.72,22.2,21.16,32.53,7.29,9.28,3.13,17.3-6.97,15.47h0c-6.52-1.92-10.02-3.69-16.7,2.65-6.67,6.35-6.46,29.71,7.02,45.22,13.48,15.51,35.15,17.26,41.83,10.77,6.67-6.49,5.46-10.31,4.4-17.2h0c-.77-10.61,7.12-14.33,15.34-6.28,8.73,8.42,17.53,16.72,26.9,24.32,9.31,7.54,19.47,13.79,30.57,18.59-30.5,30.25-60.99,60.22-91.35,89.99-11.89-3.94-22.56-9.69-32.22-17.16-9.67-7.48-18.68-15.99-27.62-24.61-8.23-8.42-4.27-16.25,6.33-15h0c7.02,1.35,10.85,2.55,17.49-3.89,6.64-6.44,4.56-27.37-8.89-43.02-13.45-15.65-33.03-20.7-39.67-14.4-6.64,6.3-5.96,10.7-5.33,18.34h0c.27,11.37-7.33,14.8-14.55,4.85-7.29-11-14.6-22.27-20.37-34.73-6.02-13-9.99-27.73-12.33-44.75,30.06-27.58,60.34-55.25,90.76-82.92Z"/><path class="e" d="m519.45,724.82c-8.73-6.42-16.99-13.56-25.19-20.97-8.12-7.34-16.31-14.65-24.4-22.02-7.58-6.99-3.85-15.39,6.12-15.95h0c6.52.2,10.03.73,15.99-6.95,5.96-7.68,4.16-28.48-8.89-40.44-13.06-11.97-32.4-11.04-38.47-3.69-6.06,7.35-5.17,10.98-4.33,17.77h0c.7,10.32-6.83,15.19-14.2,7.72-7.8-7.85-15.51-15.92-22.6-24.79-7.07-8.84-13.15-18.85-18.44-29.95-25.12,26.92-50.52,53.26-76.07,79.31,4.64,12.72,10.38,23.85,17.29,33.77,6.82,9.8,14.44,18.66,22.24,27.47,7.44,8.04,3.34,16.35-6.69,15.67h0c-6.52-1.16-10.06-2.17-16.56,4.56-6.49,6.73-5.81,28.71,7.6,42.54,13.41,13.83,34.3,14.01,40.76,7.04,6.46-6.97,5.53-10.7,4.4-17.39h0c-.77-10.42,7.05-15.09,14.84-7.62,8.37,7.75,16.86,15.52,25.4,22.98,8.56,7.48,17.46,14.46,27.05,20.4,24.98-29.3,49.81-58.99,74.15-89.44Z"/><path class="m" d="m308.97,664.85c4.64,12.72,10.38,23.85,17.29,33.77,6.82,9.8,14.44,18.66,22.24,27.47,7.44,8.04,3.34,16.35-6.69,15.67h0c-6.52-1.16-10.06-2.17-16.56,4.56-6.49,6.73-5.81,28.71,7.6,42.54,13.41,13.83,34.3,14.01,40.76,7.04,6.46-6.97,5.53-10.7,4.4-17.39h0c-.77-10.42,7.05-15.09,14.84-7.62,8.37,7.75,16.86,15.52,25.4,22.98,8.56,7.48,17.46,14.46,27.05,20.4-29.43,33.03-59.07,65.48-88.85,97.26-10.45-5.37-20.01-12.03-28.99-19.54-8.99-7.52-17.67-15.61-26.33-23.74-7.94-7.75-3.99-15.87,6.47-15.19h0c6.88.78,10.46,1.69,17.06-5.13,6.6-6.82,4.88-27.42-8.53-41.5-13.41-14.07-33.47-16.68-40.04-10.1-6.57,6.59-5.68,10.51-4.97,17.87h0c.41,10.8-7.4,14.71-14.7,5.9-7.65-9.57-15.27-19.51-21.73-30.24-6.69-11.1-11.78-23.63-15.7-37.87,30.14-28.53,60.13-57.64,89.98-87.13Z"/><path class="i" d="m662.64,512.37c-6.87-7.08-13.56-14.47-20.6-21.25-6.98-6.72-14.38-13.12-21.75-19.34-7.01-5.84-4.2-15.01,4.33-17.29h0c5.66-.95,8.74-.99,13.7-9.63,4.96-8.64,2.73-29.48-9.47-38.72-12.2-9.24-29.87-4.25-34.97,3.96-5.1,8.21-3.96,11.65-2.68,18.06h0c1.2,10.04-5.11,16.15-12.27,10.49-7.58-6.03-15.18-12.07-22.54-18.48-7.38-6.42-14.24-13.4-20.46-21.15-21.83,30.55-44.16,60.72-67.34,89.84,5.79,9.37,12.43,17.69,19.66,25.36,7.21,7.64,14.95,14.65,22.68,21.64,7.3,6.41,3.92,15.01-5.61,16.05h0c-6.16.18-9.49-.2-15.34,7.34-5.85,7.54-4.41,28.28,8.61,39.97,13.02,11.68,32.44,9.51,38.19,1.59,5.74-7.92,4.67-11.46,3.54-18.25h0c-.92-10.32,6.04-15.95,13.34-9.54,7.8,6.8,15.62,13.59,23.18,20.68,7.54,7.08,15.02,14.46,22.75,21.35,21.98-33.23,42.88-67.51,63.06-102.65Z"/><path class="n" d="m468.58,488.85c5.79,9.37,12.43,17.69,19.66,25.36,7.21,7.64,14.95,14.65,22.68,21.64,7.3,6.41,3.92,15.01-5.61,16.05h0c-6.16.18-9.49-.2-15.34,7.34-5.85,7.54-4.41,28.28,8.61,39.97,13.02,11.68,32.44,9.51,38.19,1.59,5.74-7.92,4.67-11.46,3.54-18.25h0c-.92-10.32,6.04-15.95,13.34-9.54,7.8,6.8,15.62,13.59,23.18,20.68,7.54,7.08,15.02,14.46,22.75,21.35-25.78,37.81-52.7,74.18-80.13,109.79-8.73-6.42-16.99-13.56-25.19-20.97-8.12-7.34-16.31-14.65-24.4-22.02-7.58-6.99-3.85-15.39,6.12-15.95h0c6.52.2,10.03.73,15.99-6.95,5.96-7.68,4.16-28.48-8.89-40.44-13.06-11.97-32.4-11.04-38.47-3.69-6.06,7.35-5.17,10.98-4.33,17.77h0c.7,10.32-6.83,15.19-14.2,7.72-7.8-7.85-15.51-15.92-22.6-24.79-7.07-8.84-13.15-18.85-18.44-29.95,28.35-31.5,56.41-63.57,83.55-96.69Z"/><path class="e" d="m757.75,262c-4.43-7.56-9-14.68-14.44-20.57-5.43-5.88-11.52-10.82-17.6-15.61-5.94-4.41-5.57-14.82.1-19.5h0c3.73-2.57,5.88-3.39,7.9-13.85,2.02-10.46-2.78-31.78-13.2-37.68-10.42-5.9-22.97,4.74-25.24,14.78-2.27,10.03-.81,13,1.33,19.02h0c2.85,9.94-.67,18.25-7.19,14.61-6.94-3.55-14.01-7.34-21.05-10.93-7.06-3.6-14.18-7.19-20.9-11.31-13.24,36.3-27.91,71.93-44.44,106.31,6.65,5.74,13.69,11.08,20.9,16.09,7.26,5.05,14.6,9.77,22.05,14.66,6.87,4.6,4.92,14.06-2.96,17.39h0c-5.45,1.43-8.49,1.76-13.13,10.4-4.63,8.64-1.44,28.48,10.62,37.39,12.06,8.91,28.15,3.24,32.61-5.78,4.46-9.03,3.39-12.52,2.03-19.02h0c-1.63-10.42,3.4-17.87,9.98-12.79,6.73,5.55,13.57,11.28,19.82,17.62,6.2,6.29,11.94,13.59,17.52,20.96,13.89-39.36,25.34-80.53,35.3-122.19Z"/><path class="m" d="m603.02,287.28c6.65,5.74,13.69,11.08,20.9,16.09,7.26,5.05,14.6,9.77,22.05,14.66,6.87,4.6,4.92,14.06-2.96,17.39h0c-5.45,1.43-8.49,1.76-13.13,10.4-4.63,8.64-1.44,28.48,10.62,37.39,12.06,8.91,28.15,3.24,32.61-5.78,4.46-9.03,3.39-12.52,2.03-19.02h0c-1.63-10.42,3.4-17.87,9.98-12.79,6.73,5.55,13.57,11.28,19.82,17.62,6.2,6.29,11.94,13.59,17.52,20.96-18.19,44.04-37.96,86.92-59.81,128.18-6.87-7.08-13.56-14.47-20.6-21.25-6.98-6.72-14.38-13.12-21.75-19.34-7.01-5.84-4.2-15.01,4.33-17.29h0c5.66-.95,8.74-.99,13.7-9.63,4.96-8.64,2.73-29.48-9.47-38.72-12.2-9.24-29.87-4.25-34.97,3.96-5.1,8.21-3.96,11.65-2.68,18.06h0c1.2,10.04-5.11,16.15-12.27,10.49-7.58-6.03-15.18-12.07-22.54-18.48-7.38-6.42-14.24-13.4-20.46-21.15,23.91-36,46.11-73.43,67.09-111.73Z"/></g></g><path class="k" d="m775.21,759.3c-187.15-172.28-451.42-460.02-447.3-643.37l-58.5,170.71c-11.85,203.92,288.54,538.2,441.38,695.09,3.76,3.81,7.51,7.62,11.27,11.41l.1-.04.59.59,3.1-2.25c21.17-9.95,36.95-24.86,53.81-41.03,8.25-8.02,16.13-4.28,15.32,6.33h0c-1.09,6.88-2.31,10.7,4.34,17.21,6.65,6.51,28.33,4.83,41.86-10.64,13.53-15.47,13.82-38.83,7.16-45.2-6.65-6.37-10.17-4.6-16.69-2.7h0c-10.11,1.8-14.25-6.23-6.93-15.49,15.59-24.23,25.08-41.74,33.27-67.57-26.33-24.06-55.83-48.55-82.79-73.05Z"/><g class="r"><g><path class="e" d="m643.3,911.96c10.47-5.34,20.05-11.97,29.05-19.45,9.01-7.5,17.72-15.55,26.4-23.66,7.96-7.73,4.04-15.86-6.43-15.21h0c-6.88.75-10.46,1.66-17.04-5.19-6.58-6.84-4.8-27.44,8.66-41.47,13.46-14.03,33.52-16.58,40.07-9.97,6.55,6.61,5.64,10.52,4.92,17.88h0c-.45,10.8,7.36,14.73,14.68,5.95,7.68-9.55,15.33-19.47,21.83-30.17,6.72-11.08,11.86-23.59,15.82-37.83,26.33,24.7,52.66,49.3,79.06,73.43-3.18,15.67-7.95,29.22-14.32,41.17-6.21,11.64-13.79,22.15-21.26,32.46-7.32,9.26-3.18,17.29,6.93,15.49h0c6.52-1.9,10.04-3.66,16.69,2.7,6.65,6.37,6.37,29.73-7.16,45.2-13.53,15.47-35.21,17.15-41.86,10.64-6.65-6.51-5.43-10.33-4.34-17.21h0c.8-10.61-7.07-14.35-15.32-6.33-8.75,8.4-17.58,16.67-26.98,24.24-9.33,7.51-19.51,13.73-30.62,18.5-26.4-26.61-52.65-53.8-78.76-81.17Z"/><path class="h" d="m860.31,826.27c-3.18,15.67-7.95,29.22-14.32,41.17-6.21,11.64-13.79,22.15-21.26,32.46-7.32,9.26-3.18,17.29,6.93,15.49h0c6.52-1.9,10.04-3.66,16.69,2.7,6.65,6.37,6.37,29.73-7.16,45.2-13.53,15.47-35.21,17.15-41.86,10.64-6.65-6.51-5.43-10.33-4.34-17.21h0c.8-10.61-7.07-14.35-15.32-6.33-8.75,8.4-17.58,16.67-26.98,24.24-9.33,7.51-19.51,13.73-30.62,18.5,30.4,30.35,60.81,60.4,91.07,90.27,11.9-3.9,22.58-9.62,32.27-17.06,9.69-7.45,18.73-15.93,27.7-24.52,8.25-8.4,4.32-16.24-6.28-15.02h0c-7.02,1.33-10.86,2.52-17.48-3.95-6.62-6.46-4.48-27.38,9.02-43,13.5-15.61,33.1-20.59,39.72-14.28,6.62,6.32,5.93,10.71,5.27,18.36h0c-.3,11.37,7.29,14.83,14.54,4.9,7.32-10.98,14.66-22.22,20.47-34.66,6.06-12.98,10.07-27.7,12.46-44.71-29.98-27.67-60.17-55.43-90.51-83.2Z"/><path class="i" d="m480.88,724.76c8.75-6.39,17.04-13.51,25.25-20.89,8.14-7.31,16.36-14.6,24.46-21.95,7.61-6.97,3.89-15.38-6.07-15.97h0c-6.52.18-10.03.7-15.97-7-5.93-7.7-4.08-28.49,9.02-40.42,13.09-11.93,32.44-10.94,38.48-3.57,6.04,7.37,5.14,11,4.27,17.78h0c-.73,10.32,6.78,15.21,14.17,7.76,7.82-7.83,15.56-15.87,22.68-24.72,7.09-8.82,13.21-18.81,18.53-29.89,25.04,26.99,50.36,53.41,75.83,79.54-4.68,12.7-10.46,23.82-17.39,33.71-6.85,9.78-14.5,18.62-22.32,27.4-7.46,8.02-3.39,16.34,6.64,15.69h0c6.52-1.14,10.07-2.14,16.54,4.61,6.47,6.75,5.72,28.73-7.73,42.52-13.46,13.79-34.34,13.9-40.78,6.91-6.44-6.99-5.5-10.71-4.34-17.4h0c.8-10.42-7-15.11-14.82-7.67-8.4,7.73-16.91,15.47-25.47,22.9-8.59,7.45-17.5,14.41-27.11,20.32-24.89-29.38-49.63-59.14-73.88-89.67Z"/><path class="g" d="m691.54,665.44c-4.68,12.7-10.46,23.82-17.39,33.71-6.85,9.78-14.5,18.62-22.32,27.4-7.46,8.02-3.39,16.34,6.64,15.69h0c6.52-1.14,10.07-2.14,16.54,4.61,6.47,6.75,5.72,28.73-7.73,42.52-13.46,13.79-34.34,13.9-40.78,6.91-6.44-6.99-5.5-10.71-4.34-17.4h0c.8-10.42-7-15.11-14.82-7.67-8.4,7.73-16.91,15.47-25.47,22.9-8.59,7.45-17.5,14.41-27.11,20.32,29.33,33.12,58.87,65.66,88.55,97.53,10.47-5.34,20.05-11.97,29.05-19.45,9.01-7.5,17.72-15.55,26.4-23.66,7.96-7.73,4.04-15.86-6.43-15.21h0c-6.88.75-10.46,1.66-17.04-5.19-6.58-6.84-4.8-27.44,8.66-41.47,13.46-14.03,33.52-16.58,40.07-9.97,6.55,6.61,5.64,10.52,4.92,17.88h0c-.45,10.8,7.36,14.73,14.68,5.95,7.68-9.55,15.33-19.47,21.83-30.17,6.72-11.08,11.86-23.59,15.82-37.83-30.05-28.63-59.95-57.82-89.71-87.4Z"/><path class="e" d="m338.34,511.87c6.89-7.06,13.6-14.43,20.67-21.19,7-6.69,14.42-13.07,21.81-19.27,7.03-5.82,4.25-15-4.27-17.31h0c-5.66-.96-8.74-1.02-13.67-9.67-4.93-8.66-2.64-29.49,9.59-38.7,12.23-9.2,29.88-4.16,34.96,4.07,5.07,8.23,3.92,11.67,2.62,18.07h0c-1.23,10.03,5.06,16.16,12.24,10.53,7.6-6.01,15.21-12.03,22.6-18.41,7.39-6.4,14.28-13.36,20.52-21.09,21.73,30.62,43.97,60.86,67.07,90.05-5.82,9.36-12.48,17.65-19.74,25.3-7.23,7.62-15,14.6-22.75,21.57-7.32,6.39-3.96,15,5.56,16.07h0c6.16.2,9.49-.17,15.32,7.38,5.83,7.56,4.33,28.3-8.73,39.94-13.06,11.64-32.47,9.41-38.19,1.47-5.72-7.94-4.64-11.48-3.48-18.26h0c.95-10.32-5.99-15.97-13.31-9.58-7.82,6.78-15.67,13.54-23.25,20.61-7.56,7.05-15.07,14.41-22.82,21.28-21.87-33.3-42.67-67.64-62.75-102.85Z"/><path class="m" d="m532.47,488.95c-5.82,9.36-12.48,17.65-19.74,25.3-7.23,7.62-15,14.6-22.75,21.57-7.32,6.39-3.96,15,5.56,16.07h0c6.16.2,9.49-.17,15.32,7.38,5.83,7.56,4.33,28.3-8.73,39.94-13.06,11.64-32.47,9.41-38.19,1.47-5.72-7.94-4.64-11.48-3.48-18.26h0c.95-10.32-5.99-15.97-13.31-9.58-7.82,6.78-15.67,13.54-23.25,20.61-7.56,7.05-15.07,14.41-22.82,21.28,25.66,37.89,52.47,74.35,79.79,110.04,8.75-6.39,17.04-13.51,25.25-20.89,8.14-7.31,16.36-14.6,24.46-21.95,7.61-6.97,3.89-15.38-6.07-15.97h0c-6.52.18-10.03.7-15.97-7-5.93-7.7-4.08-28.49,9.02-40.42,13.09-11.93,32.44-10.94,38.48-3.57,6.04,7.37,5.14,11,4.27,17.78h0c-.73,10.32,6.78,15.21,14.17,7.76,7.82-7.83,15.56-15.87,22.68-24.72,7.09-8.82,13.21-18.81,18.53-29.89-28.25-31.58-56.22-63.74-83.25-96.95Z"/><path class="i" d="m244.01,261.21c4.45-7.54,9.04-14.65,14.5-20.53,5.45-5.86,11.55-10.78,17.65-15.55,5.95-4.39,5.61-14.81-.04-19.5h0c-3.72-2.59-5.87-3.4-7.86-13.87-1.99-10.47,2.88-31.77,13.31-37.64,10.44-5.86,22.96,4.81,25.2,14.85,2.24,10.04.77,13-1.39,19.02h0c-2.88,9.94.62,18.26,7.14,14.63,6.95-3.53,14.03-7.3,21.08-10.86,7.07-3.58,14.2-7.15,20.94-11.25,13.13,36.34,27.69,72.02,44.11,106.45-6.67,5.72-13.73,11.04-20.95,16.03-7.27,5.02-14.63,9.73-22.09,14.59-6.88,4.58-4.96,14.04,2.91,17.4h0c5.44,1.44,8.49,1.78,13.1,10.44,4.61,8.66,1.35,28.48-10.73,37.36-12.09,8.87-28.16,3.16-32.59-5.88-4.43-9.04-3.35-12.53-1.98-19.02h0c1.66-10.42-3.34-17.88-9.94-12.82-6.74,5.53-13.61,11.23-19.87,17.56-6.22,6.28-11.99,13.55-17.59,20.9-13.77-39.4-25.1-80.61-34.92-122.3Z"/><path class="g" d="m398.65,286.97c-6.67,5.72-13.73,11.04-20.95,16.03-7.27,5.02-14.63,9.73-22.09,14.59-6.88,4.58-4.96,14.04,2.91,17.4h0c5.44,1.44,8.49,1.78,13.1,10.44,4.61,8.66,1.35,28.48-10.73,37.36-12.09,8.87-28.16,3.16-32.59-5.88-4.43-9.04-3.35-12.53-1.98-19.02h0c1.66-10.42-3.34-17.88-9.94-12.82-6.74,5.53-13.61,11.23-19.87,17.56-6.22,6.28-11.99,13.55-17.59,20.9,18.06,44.09,37.7,87.04,59.41,128.36,6.89-7.06,13.6-14.43,20.67-21.19,7-6.69,14.42-13.07,21.81-19.27,7.03-5.82,4.25-15-4.27-17.31h0c-5.66-.96-8.74-1.02-13.67-9.67-4.93-8.66-2.64-29.49,9.59-38.7,12.23-9.2,29.88-4.16,34.96,4.07,5.07,8.23,3.92,11.67,2.62,18.07h0c-1.23,10.03,5.06,16.16,12.24,10.53,7.6-6.01,15.21-12.03,22.6-18.41,7.39-6.4,14.28-13.36,20.52-21.09-23.8-36.07-45.89-73.57-66.75-111.93Z"/></g></g><path class="j" d="m671.82,152.45c1.65,2.93,3.19,5.93,4.57,9.02l55.88,125.86h0c-13.81-32.66-41.09-57.46-75.88-74.78,7.3-20.76,12.57-40.87,15.43-60.11Z"/><path class="l" d="m269.41,286.62l58.44-130.55c.72-1.72,1.48-3.42,2.29-5.09,3,21.18,8.91,43.43,17.28,66.47-34.18,17.1-61.89,40.25-78,69.17h0Z"/><path class="f" d="m269.41,286.63l58.5-170.71c47.42-149.25,296.78-145.22,348.54,6.89l55.82,164.53c-61.28-189.68-387.77-176.9-462.86-.71Z"/><g class="o"><g><path class="i" d="m514.43-4.9c-1.92,10-1.17,20.01-.35,29.85.82,9.87,1.57,19.8,2.39,29.77.67,9.36-8.17,10.25-15.86,3.21h0c-4.87-5.01-6.77-8.49-16.68-7.7-9.91.78-24.61,16.18-24.68,33-.06,16.82,15.74,28.26,26.49,27.39,10.75-.87,12.66-3.43,17.24-8.13h0c7.48-6.54,17-2.99,17.6,6.37.82,9.88,1.42,19.81,2.17,29.72.75,9.93,1.27,19.89,2.09,29.59,47.18,7.92,96.32,26.68,148.27,55.48-1.89-9.84-3.78-19.77-5.82-29.77-2.04-9.94-4.09-19.98-6.28-29.95-1.89-9.36,9.15-4.26,20.26,9.13h0c6.7,8.55,10.2,13.5,23.68,22.68,13.48,9.19,30.74,11.11,26.23-5.83-4.51-16.94-28.4-45.55-41.39-54.37-12.98-8.82-14.85-7.96-19.2-7.1h0c-7.62.2-19.65-9.56-21.62-18.93-2.58-9.92-4.7-19.88-7.04-29.77-2.35-9.92-4.54-19.89-2.93-29.9-45.17-26.04-86.31-44.17-124.56-54.76Z"/><path class="g" d="m673.11,223.65c-1.89-9.84-3.78-19.77-5.82-29.77-2.04-9.94-4.09-19.98-6.28-29.95-1.89-9.36,9.15-4.26,20.26,9.13h0c6.7,8.55,10.2,13.5,23.68,22.68,13.48,9.19,30.74,11.11,26.23-5.83-4.51-16.94-28.4-45.55-41.39-54.37-12.98-8.82-14.85-7.96-19.2-7.1h0c-7.62.2-19.65-9.56-21.62-18.93-2.58-9.92-4.7-19.88-7.04-29.77-2.35-9.92-4.54-19.89-2.93-29.9,28.48,19.63,58.36,41.88,90.39,65.62,32.77,24.28,67.77,50.05,104.25,78.06-2.46,11.34.36,22.58,3.45,33.78,3.12,11.28,6.37,22.61,9.4,33.83,2.73,10.53-10.6.54-23.84-16.21h0c-8.22-10.58-12.21-16.26-27.17-28.68-14.96-12.42-32.41-15.56-27.83,1.77,4.58,17.33,29.85,49.76,44.65,62.87,14.81,13.11,17.44,12.58,22.85,13.1h0c9.45,2.43,23.53,18.07,25.5,28.81,1.89,11.26,3.82,22.73,5.13,34.04,1.32,11.38,1.72,22.86,2.31,34.17-30.75-33.26-63.84-64.1-97.29-92.11-33.47-28.03-66.17-53.24-97.69-75.25Z"/><path class="e" d="m234.9,129.72c-6.04,12.85-9.69,25.47-12.79,37.9-3.11,12.49-5.91,24.88-8.37,37.34-2.23,11.6-16.28,27.67-25.74,29.94h0c-5.34.34-7.54-1.48-23.05,15.41-15.5,16.88-41.53,61.29-42.97,83.23-1.44,21.94,19.69,11.27,34.01-6.59,14.32-17.86,17.72-23.18,24.22-35.68h0c11.54-19.44,24.37-30.24,23.05-18.56-1.32,12.29-2.74,24.78-3.41,37.09-.66,12.19-.8,24.59-.82,36.96,26.65-28.21,53.93-53.98,81.08-76.27,26.82-22.02,53.43-41.24,79.45-58.19,1.08-10.87,1.98-21.73,2.95-32.69.97-10.95,1.94-21.87,2.95-32.86,1.01-10.31,11.85-18.53,19.92-15.58h0c4.72,2.59,6.63,4.75,18.07-.06,11.44-4.81,28.4-24.35,29.11-41.54.71-17.19-13.83-26.07-24.44-21.99-10.6,4.08-12.97,7.92-18.32,15.41h0c-9.01,11.29-18.78,14.2-17.62,3.98,1.39-10.82,2.89-21.79,4.62-32.77,1.73-10.96,3.77-21.91,8.28-33.03-21.82,13.21-44.86,28.87-69.45,46.52-25.48,18.29-52.43,38.83-80.75,62.03Z"/><path class="m" d="m358.96,212.77c1.16-10.91,2.16-21.73,3.02-32.69.85-10.86,1.86-21.82,2.95-32.78,1.01-10.22,11.84-18.49,20-15.54h0c4.65,2.55,6.51,4.71,17.99-.1,11.48-4.81,28.44-24.24,29.11-41.41.67-17.17-13.8-25.97-24.36-21.91-10.56,4.06-13.05,7.87-18.4,15.33h0c-9.01,11.24-18.93,14.21-17.62,4.03,1.39-10.82,2.97-21.77,4.7-32.69,1.73-10.95,3.62-21.91,8.13-33.07C430.1,2.09,472.81-6.65,514.58-3.91c-2,9.87-1.14,19.87-.35,29.72.78,9.83,1.49,19.76,2.24,29.64.75,9.36-8.1,10.3-15.86,3.21h0c-4.87-4.97-6.81-8.44-16.68-7.66-9.87.78-24.57,16.14-24.68,32.92-.1,16.78,15.78,28.21,26.49,27.34,10.71-.87,12.58-3.43,17.24-8.13h0c7.48-6.5,17-2.95,17.6,6.37.9,9.84,1.49,19.72,2.24,29.64.75,9.89,1.27,19.8,2.01,29.55-53.6,2.25-108.74,16.7-165.88,44.09Z"/></g></g></svg>